<?xml version="1.0" encoding="utf-8" standalone="no"?>
<!DOCTYPE svg PUBLIC "-//W3C//DTD SVG 1.1//EN"
  "http://www.w3.org/Graphics/SVG/1.1/DTD/svg11.dtd">
<!-- Created with matplotlib (http://matplotlib.org/) -->
<svg height="205pt" version="1.1" viewBox="0 0 556 205" width="556pt" xmlns="http://www.w3.org/2000/svg" xmlns:xlink="http://www.w3.org/1999/xlink">
 <defs>
  <style type="text/css">
*{stroke-linecap:butt;stroke-linejoin:round;}
  </style>
 </defs>
 <g id="figure_1">
  <g id="patch_1">
   <path d="M 0 205.371263 
L 556.117558 205.371263 
L 556.117558 0 
L 0 0 
z
" style="fill:#ffffff;"/>
  </g>
  <g id="axes_1">
   <g id="patch_2">
    <path d="M 19.078496 90.501888 
L 336.257443 90.501888 
L 336.257443 11.301888 
L 19.078496 11.301888 
z
" style="fill:#ffffff;"/>
   </g>
   <g id="matplotlib.axis_1">
    <g id="xtick_1">
     <g id="line2d_1">
      <defs>
       <path d="M 0 0 
L 0 3.5 
" id="m06e6d74cbf" style="stroke:#000000;stroke-width:0.8;"/>
      </defs>
      <g>
       <use style="stroke:#000000;stroke-width:0.8;" x="25.015" xlink:href="#m06e6d74cbf" y="90.501888"/>
      </g>
     </g>
    </g>
    <g id="xtick_2">
     <g id="line2d_2">
      <g>
       <use style="stroke:#000000;stroke-width:0.8;" x="109.822205" xlink:href="#m06e6d74cbf" y="90.501888"/>
      </g>
     </g>
    </g>
    <g id="xtick_3">
     <g id="line2d_3">
      <g>
       <use style="stroke:#000000;stroke-width:0.8;" x="194.62941" xlink:href="#m06e6d74cbf" y="90.501888"/>
      </g>
     </g>
    </g>
    <g id="xtick_4">
     <g id="line2d_4">
      <g>
       <use style="stroke:#000000;stroke-width:0.8;" x="279.436616" xlink:href="#m06e6d74cbf" y="90.501888"/>
      </g>
     </g>
    </g>
   </g>
   <g id="matplotlib.axis_2">
    <g id="ytick_1">
     <g id="line2d_5">
      <defs>
       <path d="M 0 0 
L 3.5 0 
" id="m5b882e1a45" style="stroke:#000000;stroke-width:0.8;"/>
      </defs>
      <g>
       <use style="stroke:#000000;stroke-width:0.8;" x="336.257443" xlink:href="#m5b882e1a45" y="66.939138"/>
      </g>
     </g>
     <g id="text_1">
      <!-- 50 -->
      <defs>
       <path d="M 10.796875 72.90625 
L 49.515625 72.90625 
L 49.515625 64.59375 
L 19.828125 64.59375 
L 19.828125 46.734375 
Q 21.96875 47.46875 24.109375 47.828125 
Q 26.265625 48.1875 28.421875 48.1875 
Q 40.625 48.1875 47.75 41.5 
Q 54.890625 34.8125 54.890625 23.390625 
Q 54.890625 11.625 47.5625 5.09375 
Q 40.234375 -1.421875 26.90625 -1.421875 
Q 22.3125 -1.421875 17.546875 -0.640625 
Q 12.796875 0.140625 7.71875 1.703125 
L 7.71875 11.625 
Q 12.109375 9.234375 16.796875 8.0625 
Q 21.484375 6.890625 26.703125 6.890625 
Q 35.15625 6.890625 40.078125 11.328125 
Q 45.015625 15.765625 45.015625 23.390625 
Q 45.015625 31 40.078125 35.4375 
Q 35.15625 39.890625 26.703125 39.890625 
Q 22.75 39.890625 18.8125 39.015625 
Q 14.890625 38.140625 10.796875 36.28125 
z
" id="DejaVuSans-35"/>
       <path d="M 31.78125 66.40625 
Q 24.171875 66.40625 20.328125 58.90625 
Q 16.5 51.421875 16.5 36.375 
Q 16.5 21.390625 20.328125 13.890625 
Q 24.171875 6.390625 31.78125 6.390625 
Q 39.453125 6.390625 43.28125 13.890625 
Q 47.125 21.390625 47.125 36.375 
Q 47.125 51.421875 43.28125 58.90625 
Q 39.453125 66.40625 31.78125 66.40625 
z
M 31.78125 74.21875 
Q 44.046875 74.21875 50.515625 64.515625 
Q 56.984375 54.828125 56.984375 36.375 
Q 56.984375 17.96875 50.515625 8.265625 
Q 44.046875 -1.421875 31.78125 -1.421875 
Q 19.53125 -1.421875 13.0625 8.265625 
Q 6.59375 17.96875 6.59375 36.375 
Q 6.59375 54.828125 13.0625 64.515625 
Q 19.53125 74.21875 31.78125 74.21875 
z
" id="DejaVuSans-30"/>
      </defs>
      <g transform="translate(343.257443 72.258044)scale(0.14 -0.14)">
       <use xlink:href="#DejaVuSans-35"/>
       <use x="63.623047" xlink:href="#DejaVuSans-30"/>
      </g>
     </g>
    </g>
    <g id="ytick_2">
     <g id="line2d_6">
      <g>
       <use style="stroke:#000000;stroke-width:0.8;" x="336.257443" xlink:href="#m5b882e1a45" y="12.518906"/>
      </g>
     </g>
     <g id="text_2">
      <!-- 100 -->
      <defs>
       <path d="M 12.40625 8.296875 
L 28.515625 8.296875 
L 28.515625 63.921875 
L 10.984375 60.40625 
L 10.984375 69.390625 
L 28.421875 72.90625 
L 38.28125 72.90625 
L 38.28125 8.296875 
L 54.390625 8.296875 
L 54.390625 0 
L 12.40625 0 
z
" id="DejaVuSans-31"/>
      </defs>
      <g transform="translate(343.257443 17.837813)scale(0.14 -0.14)">
       <use xlink:href="#DejaVuSans-31"/>
       <use x="63.623047" xlink:href="#DejaVuSans-30"/>
       <use x="127.246094" xlink:href="#DejaVuSans-30"/>
      </g>
     </g>
    </g>
   </g>
   <g id="line2d_7">
    <path clip-path="url(#peb99c65f63)" d="M 33.495721 35.651025 
L 41.976441 48.224509 
L 50.457162 49.329734 
L 58.937882 44.768802 
L 67.418603 70.413637 
L 75.899323 69.517358 
L 84.380044 55.268561 
L 92.860764 64.735745 
L 101.341485 69.609844 
L 109.822205 54.36157 
L 118.302926 73.384378 
L 126.783646 85.043569 
L 135.264367 71.076446 
L 143.745087 49.411021 
L 152.225808 86.901888 
L 160.706528 67.507806 
L 169.187249 59.721551 
L 177.667969 55.581967 
L 186.14869 82.891882 
L 194.62941 57.428588 
L 203.110131 48.291491 
L 211.590851 48.755656 
L 220.071572 78.200143 
L 228.552292 35.889639 
L 237.033013 48.519182 
L 245.513733 14.901888 
L 253.994454 49.093349 
L 262.475175 59.146358 
L 270.955895 60.022712 
L 279.436616 49.325469 
L 287.917336 59.997646 
L 296.398057 61.722341 
L 304.878777 41.615513 
L 313.359498 17.211474 
L 321.840218 67.860789 
" style="fill:none;stroke:#0000ff;stroke-linecap:square;stroke-width:1.5;"/>
    <defs>
     <path d="M 0 3 
C 0.795609 3 1.55874 2.683901 2.12132 2.12132 
C 2.683901 1.55874 3 0.795609 3 0 
C 3 -0.795609 2.683901 -1.55874 2.12132 -2.12132 
C 1.55874 -2.683901 0.795609 -3 0 -3 
C -0.795609 -3 -1.55874 -2.683901 -2.12132 -2.12132 
C -2.683901 -1.55874 -3 -0.795609 -3 0 
C -3 0.795609 -2.683901 1.55874 -2.12132 2.12132 
C -1.55874 2.683901 -0.795609 3 0 3 
z
" id="m4be6ff01c9" style="stroke:#0000ff;"/>
    </defs>
    <g clip-path="url(#peb99c65f63)">
     <use style="fill:#0000ff;stroke:#0000ff;" x="33.495721" xlink:href="#m4be6ff01c9" y="35.651025"/>
     <use style="fill:#0000ff;stroke:#0000ff;" x="41.976441" xlink:href="#m4be6ff01c9" y="48.224509"/>
     <use style="fill:#0000ff;stroke:#0000ff;" x="50.457162" xlink:href="#m4be6ff01c9" y="49.329734"/>
     <use style="fill:#0000ff;stroke:#0000ff;" x="58.937882" xlink:href="#m4be6ff01c9" y="44.768802"/>
     <use style="fill:#0000ff;stroke:#0000ff;" x="67.418603" xlink:href="#m4be6ff01c9" y="70.413637"/>
     <use style="fill:#0000ff;stroke:#0000ff;" x="75.899323" xlink:href="#m4be6ff01c9" y="69.517358"/>
     <use style="fill:#0000ff;stroke:#0000ff;" x="84.380044" xlink:href="#m4be6ff01c9" y="55.268561"/>
     <use style="fill:#0000ff;stroke:#0000ff;" x="92.860764" xlink:href="#m4be6ff01c9" y="64.735745"/>
     <use style="fill:#0000ff;stroke:#0000ff;" x="101.341485" xlink:href="#m4be6ff01c9" y="69.609844"/>
     <use style="fill:#0000ff;stroke:#0000ff;" x="109.822205" xlink:href="#m4be6ff01c9" y="54.36157"/>
     <use style="fill:#0000ff;stroke:#0000ff;" x="118.302926" xlink:href="#m4be6ff01c9" y="73.384378"/>
     <use style="fill:#0000ff;stroke:#0000ff;" x="126.783646" xlink:href="#m4be6ff01c9" y="85.043569"/>
     <use style="fill:#0000ff;stroke:#0000ff;" x="135.264367" xlink:href="#m4be6ff01c9" y="71.076446"/>
     <use style="fill:#0000ff;stroke:#0000ff;" x="143.745087" xlink:href="#m4be6ff01c9" y="49.411021"/>
     <use style="fill:#0000ff;stroke:#0000ff;" x="152.225808" xlink:href="#m4be6ff01c9" y="86.901888"/>
     <use style="fill:#0000ff;stroke:#0000ff;" x="160.706528" xlink:href="#m4be6ff01c9" y="67.507806"/>
     <use style="fill:#0000ff;stroke:#0000ff;" x="169.187249" xlink:href="#m4be6ff01c9" y="59.721551"/>
     <use style="fill:#0000ff;stroke:#0000ff;" x="177.667969" xlink:href="#m4be6ff01c9" y="55.581967"/>
     <use style="fill:#0000ff;stroke:#0000ff;" x="186.14869" xlink:href="#m4be6ff01c9" y="82.891882"/>
     <use style="fill:#0000ff;stroke:#0000ff;" x="194.62941" xlink:href="#m4be6ff01c9" y="57.428588"/>
     <use style="fill:#0000ff;stroke:#0000ff;" x="203.110131" xlink:href="#m4be6ff01c9" y="48.291491"/>
     <use style="fill:#0000ff;stroke:#0000ff;" x="211.590851" xlink:href="#m4be6ff01c9" y="48.755656"/>
     <use style="fill:#0000ff;stroke:#0000ff;" x="220.071572" xlink:href="#m4be6ff01c9" y="78.200143"/>
     <use style="fill:#0000ff;stroke:#0000ff;" x="228.552292" xlink:href="#m4be6ff01c9" y="35.889639"/>
     <use style="fill:#0000ff;stroke:#0000ff;" x="237.033013" xlink:href="#m4be6ff01c9" y="48.519182"/>
     <use style="fill:#0000ff;stroke:#0000ff;" x="245.513733" xlink:href="#m4be6ff01c9" y="14.901888"/>
     <use style="fill:#0000ff;stroke:#0000ff;" x="253.994454" xlink:href="#m4be6ff01c9" y="49.093349"/>
     <use style="fill:#0000ff;stroke:#0000ff;" x="262.475175" xlink:href="#m4be6ff01c9" y="59.146358"/>
     <use style="fill:#0000ff;stroke:#0000ff;" x="270.955895" xlink:href="#m4be6ff01c9" y="60.022712"/>
     <use style="fill:#0000ff;stroke:#0000ff;" x="279.436616" xlink:href="#m4be6ff01c9" y="49.325469"/>
     <use style="fill:#0000ff;stroke:#0000ff;" x="287.917336" xlink:href="#m4be6ff01c9" y="59.997646"/>
     <use style="fill:#0000ff;stroke:#0000ff;" x="296.398057" xlink:href="#m4be6ff01c9" y="61.722341"/>
     <use style="fill:#0000ff;stroke:#0000ff;" x="304.878777" xlink:href="#m4be6ff01c9" y="41.615513"/>
     <use style="fill:#0000ff;stroke:#0000ff;" x="313.359498" xlink:href="#m4be6ff01c9" y="17.211474"/>
     <use style="fill:#0000ff;stroke:#0000ff;" x="321.840218" xlink:href="#m4be6ff01c9" y="67.860789"/>
    </g>
   </g>
   <g id="patch_3">
    <path d="M 19.078496 90.501888 
L 19.078496 11.301888 
" style="fill:none;stroke:#000000;stroke-linecap:square;stroke-linejoin:miter;stroke-width:0.8;"/>
   </g>
   <g id="patch_4">
    <path d="M 336.257443 90.501888 
L 336.257443 11.301888 
" style="fill:none;stroke:#000000;stroke-linecap:square;stroke-linejoin:miter;stroke-width:0.8;"/>
   </g>
   <g id="patch_5">
    <path d="M 19.078496 90.501888 
L 336.257443 90.501888 
" style="fill:none;stroke:#000000;stroke-linecap:square;stroke-linejoin:miter;stroke-width:0.8;"/>
   </g>
   <g id="patch_6">
    <path d="M 19.078496 11.301888 
L 336.257443 11.301888 
" style="fill:none;stroke:#000000;stroke-linecap:square;stroke-linejoin:miter;stroke-width:0.8;"/>
   </g>
  </g>
  <g id="axes_2">
   <g id="patch_7">
    <path d="M 19.078496 177.621888 
L 336.257443 177.621888 
L 336.257443 98.421888 
L 19.078496 98.421888 
z
" style="fill:#ffffff;"/>
   </g>
   <g id="matplotlib.axis_3">
    <g id="xtick_5">
     <g id="line2d_8">
      <g>
       <use style="stroke:#000000;stroke-width:0.8;" x="25.015" xlink:href="#m06e6d74cbf" y="177.621888"/>
      </g>
     </g>
     <g id="text_3">
      <!-- 1980 -->
      <defs>
       <path d="M 10.984375 1.515625 
L 10.984375 10.5 
Q 14.703125 8.734375 18.5 7.8125 
Q 22.3125 6.890625 25.984375 6.890625 
Q 35.75 6.890625 40.890625 13.453125 
Q 46.046875 20.015625 46.78125 33.40625 
Q 43.953125 29.203125 39.59375 26.953125 
Q 35.25 24.703125 29.984375 24.703125 
Q 19.046875 24.703125 12.671875 31.3125 
Q 6.296875 37.9375 6.296875 49.421875 
Q 6.296875 60.640625 12.9375 67.421875 
Q 19.578125 74.21875 30.609375 74.21875 
Q 43.265625 74.21875 49.921875 64.515625 
Q 56.59375 54.828125 56.59375 36.375 
Q 56.59375 19.140625 48.40625 8.859375 
Q 40.234375 -1.421875 26.421875 -1.421875 
Q 22.703125 -1.421875 18.890625 -0.6875 
Q 15.09375 0.046875 10.984375 1.515625 
z
M 30.609375 32.421875 
Q 37.25 32.421875 41.125 36.953125 
Q 45.015625 41.5 45.015625 49.421875 
Q 45.015625 57.28125 41.125 61.84375 
Q 37.25 66.40625 30.609375 66.40625 
Q 23.96875 66.40625 20.09375 61.84375 
Q 16.21875 57.28125 16.21875 49.421875 
Q 16.21875 41.5 20.09375 36.953125 
Q 23.96875 32.421875 30.609375 32.421875 
z
" id="DejaVuSans-39"/>
       <path d="M 31.78125 34.625 
Q 24.75 34.625 20.71875 30.859375 
Q 16.703125 27.09375 16.703125 20.515625 
Q 16.703125 13.921875 20.71875 10.15625 
Q 24.75 6.390625 31.78125 6.390625 
Q 38.8125 6.390625 42.859375 10.171875 
Q 46.921875 13.96875 46.921875 20.515625 
Q 46.921875 27.09375 42.890625 30.859375 
Q 38.875 34.625 31.78125 34.625 
z
M 21.921875 38.8125 
Q 15.578125 40.375 12.03125 44.71875 
Q 8.5 49.078125 8.5 55.328125 
Q 8.5 64.0625 14.71875 69.140625 
Q 20.953125 74.21875 31.78125 74.21875 
Q 42.671875 74.21875 48.875 69.140625 
Q 55.078125 64.0625 55.078125 55.328125 
Q 55.078125 49.078125 51.53125 44.71875 
Q 48 40.375 41.703125 38.8125 
Q 48.828125 37.15625 52.796875 32.3125 
Q 56.78125 27.484375 56.78125 20.515625 
Q 56.78125 9.90625 50.3125 4.234375 
Q 43.84375 -1.421875 31.78125 -1.421875 
Q 19.734375 -1.421875 13.25 4.234375 
Q 6.78125 9.90625 6.78125 20.515625 
Q 6.78125 27.484375 10.78125 32.3125 
Q 14.796875 37.15625 21.921875 38.8125 
z
M 18.3125 54.390625 
Q 18.3125 48.734375 21.84375 45.5625 
Q 25.390625 42.390625 31.78125 42.390625 
Q 38.140625 42.390625 41.71875 45.5625 
Q 45.3125 48.734375 45.3125 54.390625 
Q 45.3125 60.0625 41.71875 63.234375 
Q 38.140625 66.40625 31.78125 66.40625 
Q 25.390625 66.40625 21.84375 63.234375 
Q 18.3125 60.0625 18.3125 54.390625 
z
" id="DejaVuSans-38"/>
      </defs>
      <g transform="translate(7.2 195.2597)scale(0.14 -0.14)">
       <use xlink:href="#DejaVuSans-31"/>
       <use x="63.623047" xlink:href="#DejaVuSans-39"/>
       <use x="127.246094" xlink:href="#DejaVuSans-38"/>
       <use x="190.869141" xlink:href="#DejaVuSans-30"/>
      </g>
     </g>
    </g>
    <g id="xtick_6">
     <g id="line2d_9">
      <g>
       <use style="stroke:#000000;stroke-width:0.8;" x="109.822205" xlink:href="#m06e6d74cbf" y="177.621888"/>
      </g>
     </g>
     <g id="text_4">
      <!-- 1990 -->
      <g transform="translate(92.007205 195.2597)scale(0.14 -0.14)">
       <use xlink:href="#DejaVuSans-31"/>
       <use x="63.623047" xlink:href="#DejaVuSans-39"/>
       <use x="127.246094" xlink:href="#DejaVuSans-39"/>
       <use x="190.869141" xlink:href="#DejaVuSans-30"/>
      </g>
     </g>
    </g>
    <g id="xtick_7">
     <g id="line2d_10">
      <g>
       <use style="stroke:#000000;stroke-width:0.8;" x="194.62941" xlink:href="#m06e6d74cbf" y="177.621888"/>
      </g>
     </g>
     <g id="text_5">
      <!-- 2000 -->
      <defs>
       <path d="M 19.1875 8.296875 
L 53.609375 8.296875 
L 53.609375 0 
L 7.328125 0 
L 7.328125 8.296875 
Q 12.9375 14.109375 22.625 23.890625 
Q 32.328125 33.6875 34.8125 36.53125 
Q 39.546875 41.84375 41.421875 45.53125 
Q 43.3125 49.21875 43.3125 52.78125 
Q 43.3125 58.59375 39.234375 62.25 
Q 35.15625 65.921875 28.609375 65.921875 
Q 23.96875 65.921875 18.8125 64.3125 
Q 13.671875 62.703125 7.8125 59.421875 
L 7.8125 69.390625 
Q 13.765625 71.78125 18.9375 73 
Q 24.125 74.21875 28.421875 74.21875 
Q 39.75 74.21875 46.484375 68.546875 
Q 53.21875 62.890625 53.21875 53.421875 
Q 53.21875 48.921875 51.53125 44.890625 
Q 49.859375 40.875 45.40625 35.40625 
Q 44.1875 33.984375 37.640625 27.21875 
Q 31.109375 20.453125 19.1875 8.296875 
z
" id="DejaVuSans-32"/>
      </defs>
      <g transform="translate(176.81441 195.2597)scale(0.14 -0.14)">
       <use xlink:href="#DejaVuSans-32"/>
       <use x="63.623047" xlink:href="#DejaVuSans-30"/>
       <use x="127.246094" xlink:href="#DejaVuSans-30"/>
       <use x="190.869141" xlink:href="#DejaVuSans-30"/>
      </g>
     </g>
    </g>
    <g id="xtick_8">
     <g id="line2d_11">
      <g>
       <use style="stroke:#000000;stroke-width:0.8;" x="279.436616" xlink:href="#m06e6d74cbf" y="177.621888"/>
      </g>
     </g>
     <g id="text_6">
      <!-- 2010 -->
      <g transform="translate(261.621616 195.2597)scale(0.14 -0.14)">
       <use xlink:href="#DejaVuSans-32"/>
       <use x="63.623047" xlink:href="#DejaVuSans-30"/>
       <use x="127.246094" xlink:href="#DejaVuSans-31"/>
       <use x="190.869141" xlink:href="#DejaVuSans-30"/>
      </g>
     </g>
    </g>
   </g>
   <g id="matplotlib.axis_4">
    <g id="ytick_3">
     <g id="line2d_12">
      <g>
       <use style="stroke:#000000;stroke-width:0.8;" x="336.257443" xlink:href="#m5b882e1a45" y="156.729554"/>
      </g>
     </g>
     <g id="text_7">
      <!-- 50 -->
      <g transform="translate(343.257443 162.04846)scale(0.14 -0.14)">
       <use xlink:href="#DejaVuSans-35"/>
       <use x="63.623047" xlink:href="#DejaVuSans-30"/>
      </g>
     </g>
    </g>
    <g id="ytick_4">
     <g id="line2d_13">
      <g>
       <use style="stroke:#000000;stroke-width:0.8;" x="336.257443" xlink:href="#m5b882e1a45" y="109.566527"/>
      </g>
     </g>
     <g id="text_8">
      <!-- 100 -->
      <g transform="translate(343.257443 114.885433)scale(0.14 -0.14)">
       <use xlink:href="#DejaVuSans-31"/>
       <use x="63.623047" xlink:href="#DejaVuSans-30"/>
       <use x="127.246094" xlink:href="#DejaVuSans-30"/>
      </g>
     </g>
    </g>
   </g>
   <g id="line2d_14">
    <path clip-path="url(#p0e35f53fc7)" d="M 33.495721 151.434699 
L 41.976441 124.054246 
L 50.457162 133.019189 
L 58.937882 136.934799 
L 67.418603 138.606525 
L 75.899323 161.410315 
L 84.380044 149.207542 
L 92.860764 149.036252 
L 101.341485 164.481418 
L 109.822205 102.021888 
L 118.302926 125.114916 
L 126.783646 147.459514 
L 135.264367 145.150082 
L 143.745087 171.057486 
L 152.225808 141.296444 
L 160.706528 134.146321 
L 169.187249 135.910801 
L 177.667969 155.118035 
L 186.14869 157.298524 
L 194.62941 129.540416 
L 203.110131 156.978768 
L 211.590851 141.848488 
L 220.071572 152.621511 
L 228.552292 149.810671 
L 237.033013 120.133879 
L 245.513733 142.299605 
L 253.994454 109.464292 
L 262.475175 108.264759 
L 270.955895 139.743615 
L 279.436616 174.021888 
L 287.917336 149.925527 
L 296.398057 147.557468 
L 304.878777 137.246048 
L 313.359498 143.028603 
L 321.840218 143.664643 
" style="fill:none;stroke:#ffa500;stroke-linecap:square;stroke-width:1.5;"/>
    <defs>
     <path d="M -3 0 
L 3 0 
M 0 3 
L 0 -3 
" id="m6164dca82d" style="stroke:#ffa500;"/>
    </defs>
    <g clip-path="url(#p0e35f53fc7)">
     <use style="fill:#ffa500;stroke:#ffa500;" x="33.495721" xlink:href="#m6164dca82d" y="151.434699"/>
     <use style="fill:#ffa500;stroke:#ffa500;" x="41.976441" xlink:href="#m6164dca82d" y="124.054246"/>
     <use style="fill:#ffa500;stroke:#ffa500;" x="50.457162" xlink:href="#m6164dca82d" y="133.019189"/>
     <use style="fill:#ffa500;stroke:#ffa500;" x="58.937882" xlink:href="#m6164dca82d" y="136.934799"/>
     <use style="fill:#ffa500;stroke:#ffa500;" x="67.418603" xlink:href="#m6164dca82d" y="138.606525"/>
     <use style="fill:#ffa500;stroke:#ffa500;" x="75.899323" xlink:href="#m6164dca82d" y="161.410315"/>
     <use style="fill:#ffa500;stroke:#ffa500;" x="84.380044" xlink:href="#m6164dca82d" y="149.207542"/>
     <use style="fill:#ffa500;stroke:#ffa500;" x="92.860764" xlink:href="#m6164dca82d" y="149.036252"/>
     <use style="fill:#ffa500;stroke:#ffa500;" x="101.341485" xlink:href="#m6164dca82d" y="164.481418"/>
     <use style="fill:#ffa500;stroke:#ffa500;" x="109.822205" xlink:href="#m6164dca82d" y="102.021888"/>
     <use style="fill:#ffa500;stroke:#ffa500;" x="118.302926" xlink:href="#m6164dca82d" y="125.114916"/>
     <use style="fill:#ffa500;stroke:#ffa500;" x="126.783646" xlink:href="#m6164dca82d" y="147.459514"/>
     <use style="fill:#ffa500;stroke:#ffa500;" x="135.264367" xlink:href="#m6164dca82d" y="145.150082"/>
     <use style="fill:#ffa500;stroke:#ffa500;" x="143.745087" xlink:href="#m6164dca82d" y="171.057486"/>
     <use style="fill:#ffa500;stroke:#ffa500;" x="152.225808" xlink:href="#m6164dca82d" y="141.296444"/>
     <use style="fill:#ffa500;stroke:#ffa500;" x="160.706528" xlink:href="#m6164dca82d" y="134.146321"/>
     <use style="fill:#ffa500;stroke:#ffa500;" x="169.187249" xlink:href="#m6164dca82d" y="135.910801"/>
     <use style="fill:#ffa500;stroke:#ffa500;" x="177.667969" xlink:href="#m6164dca82d" y="155.118035"/>
     <use style="fill:#ffa500;stroke:#ffa500;" x="186.14869" xlink:href="#m6164dca82d" y="157.298524"/>
     <use style="fill:#ffa500;stroke:#ffa500;" x="194.62941" xlink:href="#m6164dca82d" y="129.540416"/>
     <use style="fill:#ffa500;stroke:#ffa500;" x="203.110131" xlink:href="#m6164dca82d" y="156.978768"/>
     <use style="fill:#ffa500;stroke:#ffa500;" x="211.590851" xlink:href="#m6164dca82d" y="141.848488"/>
     <use style="fill:#ffa500;stroke:#ffa500;" x="220.071572" xlink:href="#m6164dca82d" y="152.621511"/>
     <use style="fill:#ffa500;stroke:#ffa500;" x="228.552292" xlink:href="#m6164dca82d" y="149.810671"/>
     <use style="fill:#ffa500;stroke:#ffa500;" x="237.033013" xlink:href="#m6164dca82d" y="120.133879"/>
     <use style="fill:#ffa500;stroke:#ffa500;" x="245.513733" xlink:href="#m6164dca82d" y="142.299605"/>
     <use style="fill:#ffa500;stroke:#ffa500;" x="253.994454" xlink:href="#m6164dca82d" y="109.464292"/>
     <use style="fill:#ffa500;stroke:#ffa500;" x="262.475175" xlink:href="#m6164dca82d" y="108.264759"/>
     <use style="fill:#ffa500;stroke:#ffa500;" x="270.955895" xlink:href="#m6164dca82d" y="139.743615"/>
     <use style="fill:#ffa500;stroke:#ffa500;" x="279.436616" xlink:href="#m6164dca82d" y="174.021888"/>
     <use style="fill:#ffa500;stroke:#ffa500;" x="287.917336" xlink:href="#m6164dca82d" y="149.925527"/>
     <use style="fill:#ffa500;stroke:#ffa500;" x="296.398057" xlink:href="#m6164dca82d" y="147.557468"/>
     <use style="fill:#ffa500;stroke:#ffa500;" x="304.878777" xlink:href="#m6164dca82d" y="137.246048"/>
     <use style="fill:#ffa500;stroke:#ffa500;" x="313.359498" xlink:href="#m6164dca82d" y="143.028603"/>
     <use style="fill:#ffa500;stroke:#ffa500;" x="321.840218" xlink:href="#m6164dca82d" y="143.664643"/>
    </g>
   </g>
   <g id="patch_8">
    <path d="M 19.078496 177.621888 
L 19.078496 98.421888 
" style="fill:none;stroke:#000000;stroke-linecap:square;stroke-linejoin:miter;stroke-width:0.8;"/>
   </g>
   <g id="patch_9">
    <path d="M 336.257443 177.621888 
L 336.257443 98.421888 
" style="fill:none;stroke:#000000;stroke-linecap:square;stroke-linejoin:miter;stroke-width:0.8;"/>
   </g>
   <g id="patch_10">
    <path d="M 19.078496 177.621888 
L 336.257443 177.621888 
" style="fill:none;stroke:#000000;stroke-linecap:square;stroke-linejoin:miter;stroke-width:0.8;"/>
   </g>
   <g id="patch_11">
    <path d="M 19.078496 98.421888 
L 336.257443 98.421888 
" style="fill:none;stroke:#000000;stroke-linecap:square;stroke-linejoin:miter;stroke-width:0.8;"/>
   </g>
  </g>
  <g id="axes_3">
   <g id="patch_12">
    <path d="M 389.120601 177.621888 
L 521.278496 177.621888 
L 521.278496 11.301888 
L 389.120601 11.301888 
z
" style="fill:#ffffff;"/>
   </g>
   <g id="PathCollection_1">
    <defs>
     <path d="M 0 3 
C 0.795609 3 1.55874 2.683901 2.12132 2.12132 
C 2.683901 1.55874 3 0.795609 3 0 
C 3 -0.795609 2.683901 -1.55874 2.12132 -2.12132 
C 1.55874 -2.683901 0.795609 -3 0 -3 
C -0.795609 -3 -1.55874 -2.683901 -2.12132 -2.12132 
C -2.683901 -1.55874 -3 -0.795609 -3 0 
C -3 0.795609 -2.683901 1.55874 -2.12132 2.12132 
C -1.55874 2.683901 -0.795609 3 0 3 
z
" id="m6619eef02f" style="stroke:#808080;"/>
    </defs>
    <g clip-path="url(#p73306c1b01)">
     <use style="fill:#808080;stroke:#808080;" x="484.846931" xlink:href="#m6619eef02f" y="112.15191"/>
     <use style="fill:#808080;stroke:#808080;" x="466.644059" xlink:href="#m6619eef02f" y="60.982704"/>
     <use style="fill:#808080;stroke:#808080;" x="465.044003" xlink:href="#m6619eef02f" y="77.736591"/>
     <use style="fill:#808080;stroke:#808080;" x="471.646951" xlink:href="#m6619eef02f" y="85.05417"/>
     <use style="fill:#808080;stroke:#808080;" x="434.520437" xlink:href="#m6619eef02f" y="88.17833"/>
     <use style="fill:#808080;stroke:#808080;" x="435.817996" xlink:href="#m6619eef02f" y="130.794567"/>
     <use style="fill:#808080;stroke:#808080;" x="456.446251" xlink:href="#m6619eef02f" y="107.989749"/>
     <use style="fill:#808080;stroke:#808080;" x="442.740428" xlink:href="#m6619eef02f" y="107.669639"/>
     <use style="fill:#808080;stroke:#808080;" x="435.684103" xlink:href="#m6619eef02f" y="136.533912"/>
     <use style="fill:#808080;stroke:#808080;" x="457.759319" xlink:href="#m6619eef02f" y="19.808135"/>
     <use style="fill:#808080;stroke:#808080;" x="430.219638" xlink:href="#m6619eef02f" y="62.964907"/>
     <use style="fill:#808080;stroke:#808080;" x="413.340406" xlink:href="#m6619eef02f" y="104.722996"/>
     <use style="fill:#808080;stroke:#808080;" x="433.560875" xlink:href="#m6619eef02f" y="100.407077"/>
     <use style="fill:#808080;stroke:#808080;" x="464.926323" xlink:href="#m6619eef02f" y="148.823416"/>
     <use style="fill:#808080;stroke:#808080;" x="410.650083" xlink:href="#m6619eef02f" y="93.205311"/>
     <use style="fill:#808080;stroke:#808080;" x="438.727263" xlink:href="#m6619eef02f" y="79.843"/>
     <use style="fill:#808080;stroke:#808080;" x="449.999573" xlink:href="#m6619eef02f" y="83.140499"/>
     <use style="fill:#808080;stroke:#808080;" x="455.992527" xlink:href="#m6619eef02f" y="119.035411"/>
     <use style="fill:#808080;stroke:#808080;" x="416.455445" xlink:href="#m6619eef02f" y="123.110358"/>
     <use style="fill:#808080;stroke:#808080;" x="453.319138" xlink:href="#m6619eef02f" y="71.235381"/>
     <use style="fill:#808080;stroke:#808080;" x="466.547088" xlink:href="#m6619eef02f" y="122.512791"/>
     <use style="fill:#808080;stroke:#808080;" x="465.875107" xlink:href="#m6619eef02f" y="94.236983"/>
     <use style="fill:#808080;stroke:#808080;" x="423.247763" xlink:href="#m6619eef02f" y="114.369852"/>
     <use style="fill:#808080;stroke:#808080;" x="484.501484" xlink:href="#m6619eef02f" y="109.11689"/>
     <use style="fill:#808080;stroke:#808080;" x="466.217454" xlink:href="#m6619eef02f" y="53.656233"/>
     <use style="fill:#808080;stroke:#808080;" x="514.88585" xlink:href="#m6619eef02f" y="95.080041"/>
     <use style="fill:#808080;stroke:#808080;" x="465.386222" xlink:href="#m6619eef02f" y="33.716667"/>
     <use style="fill:#808080;stroke:#808080;" x="450.83229" xlink:href="#m6619eef02f" y="31.474954"/>
     <use style="fill:#808080;stroke:#808080;" x="449.563576" xlink:href="#m6619eef02f" y="90.303349"/>
     <use style="fill:#808080;stroke:#808080;" x="465.050179" xlink:href="#m6619eef02f" y="154.363358"/>
     <use style="fill:#808080;stroke:#808080;" x="449.599864" xlink:href="#m6619eef02f" y="109.331535"/>
     <use style="fill:#808080;stroke:#808080;" x="447.102991" xlink:href="#m6619eef02f" y="104.906054"/>
     <use style="fill:#808080;stroke:#808080;" x="476.212027" xlink:href="#m6619eef02f" y="85.635839"/>
     <use style="fill:#808080;stroke:#808080;" x="511.542218" xlink:href="#m6619eef02f" y="96.442408"/>
     <use style="fill:#808080;stroke:#808080;" x="438.216243" xlink:href="#m6619eef02f" y="97.631055"/>
    </g>
   </g>
   <g id="matplotlib.axis_5">
    <g id="xtick_9">
     <g id="line2d_15">
      <defs>
       <path d="M 0 0 
L 0 3.5 
" id="mee5ff0b0a4" style="stroke:#0000ff;stroke-width:0.8;"/>
      </defs>
      <g>
       <use style="fill:#0000ff;stroke:#0000ff;stroke-width:0.8;" x="406.920063" xlink:href="#mee5ff0b0a4" y="177.621888"/>
      </g>
     </g>
     <g id="text_9">
      <!-- −2 -->
      <defs>
       <path d="M 10.59375 35.5 
L 73.1875 35.5 
L 73.1875 27.203125 
L 10.59375 27.203125 
z
" id="DejaVuSans-2212"/>
      </defs>
      <g style="fill:#0000ff;" transform="translate(396.600532 195.2597)scale(0.14 -0.14)">
       <use xlink:href="#DejaVuSans-2212"/>
       <use x="83.789062" xlink:href="#DejaVuSans-32"/>
      </g>
     </g>
    </g>
    <g id="xtick_10">
     <g id="line2d_16">
      <g>
       <use style="fill:#0000ff;stroke:#0000ff;stroke-width:0.8;" x="454.089203" xlink:href="#mee5ff0b0a4" y="177.621888"/>
      </g>
     </g>
     <g id="text_10">
      <!-- 0 -->
      <g style="fill:#0000ff;" transform="translate(449.635453 195.2597)scale(0.14 -0.14)">
       <use xlink:href="#DejaVuSans-30"/>
      </g>
     </g>
    </g>
    <g id="xtick_11">
     <g id="line2d_17">
      <g>
       <use style="fill:#0000ff;stroke:#0000ff;stroke-width:0.8;" x="501.258343" xlink:href="#mee5ff0b0a4" y="177.621888"/>
      </g>
     </g>
     <g id="text_11">
      <!-- 2 -->
      <g style="fill:#0000ff;" transform="translate(496.804593 195.2597)scale(0.14 -0.14)">
       <use xlink:href="#DejaVuSans-32"/>
      </g>
     </g>
    </g>
   </g>
   <g id="matplotlib.axis_6">
    <g id="ytick_5">
     <g id="line2d_18">
      <defs>
       <path d="M 0 0 
L 3.5 0 
" id="mb71b9b2033" style="stroke:#ffa500;stroke-width:0.8;"/>
      </defs>
      <g>
       <use style="fill:#ffa500;stroke:#ffa500;stroke-width:0.8;" x="521.278496" xlink:href="#mb71b9b2033" y="154.941888"/>
      </g>
     </g>
     <g id="text_12">
      <!-- −2 -->
      <g style="fill:#ffa500;" transform="translate(528.278496 160.260794)scale(0.14 -0.14)">
       <use xlink:href="#DejaVuSans-2212"/>
       <use x="83.789062" xlink:href="#DejaVuSans-32"/>
      </g>
     </g>
    </g>
    <g id="ytick_6">
     <g id="line2d_19">
      <g>
       <use style="fill:#ffa500;stroke:#ffa500;stroke-width:0.8;" x="521.278496" xlink:href="#mb71b9b2033" y="94.461888"/>
      </g>
     </g>
     <g id="text_13">
      <!-- 0 -->
      <g style="fill:#ffa500;" transform="translate(528.278496 99.780794)scale(0.14 -0.14)">
       <use xlink:href="#DejaVuSans-30"/>
      </g>
     </g>
    </g>
    <g id="ytick_7">
     <g id="line2d_20">
      <g>
       <use style="fill:#ffa500;stroke:#ffa500;stroke-width:0.8;" x="521.278496" xlink:href="#mb71b9b2033" y="33.981888"/>
      </g>
     </g>
     <g id="text_14">
      <!-- 2 -->
      <g style="fill:#ffa500;" transform="translate(528.278496 39.300794)scale(0.14 -0.14)">
       <use xlink:href="#DejaVuSans-32"/>
      </g>
     </g>
    </g>
   </g>
   <g id="line2d_21">
    <path clip-path="url(#p73306c1b01)" d="M 395.127778 170.061888 
L 513.050628 18.861888 
" style="fill:none;stroke:#000000;stroke-linecap:square;stroke-width:1.5;"/>
   </g>
   <g id="patch_13">
    <path d="M 389.120601 177.621888 
L 389.120601 11.301888 
" style="fill:none;stroke:#000000;stroke-linecap:square;stroke-linejoin:miter;stroke-width:0.8;"/>
   </g>
   <g id="patch_14">
    <path d="M 521.278496 177.621888 
L 521.278496 11.301888 
" style="fill:none;stroke:#000000;stroke-linecap:square;stroke-linejoin:miter;stroke-width:0.8;"/>
   </g>
   <g id="patch_15">
    <path d="M 389.120601 177.621888 
L 521.278496 177.621888 
" style="fill:none;stroke:#000000;stroke-linecap:square;stroke-linejoin:miter;stroke-width:0.8;"/>
   </g>
   <g id="patch_16">
    <path d="M 389.120601 11.301888 
L 521.278496 11.301888 
" style="fill:none;stroke:#000000;stroke-linecap:square;stroke-linejoin:miter;stroke-width:0.8;"/>
   </g>
   <g id="text_15">
    <!-- r = 0.15 -->
    <defs>
     <path d="M 41.109375 46.296875 
Q 39.59375 47.171875 37.8125 47.578125 
Q 36.03125 48 33.890625 48 
Q 26.265625 48 22.1875 43.046875 
Q 18.109375 38.09375 18.109375 28.8125 
L 18.109375 0 
L 9.078125 0 
L 9.078125 54.6875 
L 18.109375 54.6875 
L 18.109375 46.1875 
Q 20.953125 51.171875 25.484375 53.578125 
Q 30.03125 56 36.53125 56 
Q 37.453125 56 38.578125 55.875 
Q 39.703125 55.765625 41.0625 55.515625 
z
" id="DejaVuSans-72"/>
     <path id="DejaVuSans-20"/>
     <path d="M 10.59375 45.40625 
L 73.1875 45.40625 
L 73.1875 37.203125 
L 10.59375 37.203125 
z
M 10.59375 25.484375 
L 73.1875 25.484375 
L 73.1875 17.1875 
L 10.59375 17.1875 
z
" id="DejaVuSans-3d"/>
     <path d="M 10.6875 12.40625 
L 21 12.40625 
L 21 0 
L 10.6875 0 
z
" id="DejaVuSans-2e"/>
    </defs>
    <g transform="translate(397.486235 49.101888)scale(0.14 -0.14)">
     <use xlink:href="#DejaVuSans-72"/>
     <use x="41.113281" xlink:href="#DejaVuSans-20"/>
     <use x="72.900391" xlink:href="#DejaVuSans-3d"/>
     <use x="156.689453" xlink:href="#DejaVuSans-20"/>
     <use x="188.476562" xlink:href="#DejaVuSans-30"/>
     <use x="252.099609" xlink:href="#DejaVuSans-2e"/>
     <use x="283.886719" xlink:href="#DejaVuSans-31"/>
     <use x="347.509766" xlink:href="#DejaVuSans-35"/>
    </g>
   </g>
  </g>
 </g>
 <defs>
  <clipPath id="peb99c65f63">
   <rect height="79.2" width="317.178947" x="19.078496" y="11.301888"/>
  </clipPath>
  <clipPath id="p0e35f53fc7">
   <rect height="79.2" width="317.178947" x="19.078496" y="98.421888"/>
  </clipPath>
  <clipPath id="p73306c1b01">
   <rect height="166.32" width="132.157895" x="389.120601" y="11.301888"/>
  </clipPath>
 </defs>
</svg>
